<svg width="35" height="34" viewBox="0 0 35 34" fill="none" xmlns="http://www.w3.org/2000/svg">
<g clip-path="url(#clip0_5457_457)">
<mask id="mask0_5457_457" style="mask-type:luminance" maskUnits="userSpaceOnUse" x="-41" y="-49" width="238" height="134">
<path d="M196.443 -48.8749H-40.3066V84.5345H196.443V-48.8749Z" fill="white"/>
</mask>
<g mask="url(#mask0_5457_457)">
<path d="M29.7273 9.91989C29.384 9.3151 29.0466 8.71624 28.7152 8.11738C28.6027 8.21818 28.4962 8.31898 28.3778 8.40792C28.3008 8.46721 28.2121 8.52057 28.1233 8.55615C28.0049 8.60359 27.928 8.53836 27.9635 8.41385C27.999 8.28933 28.0523 8.16482 28.1114 8.04623C28.1588 7.95136 28.2298 7.85649 28.289 7.7557C27.6439 7.52445 26.9987 7.29321 26.3477 7.06197C26.5252 6.83072 26.7028 6.60541 27.0106 6.5639C27.1112 6.55204 27.2118 6.54612 27.3065 6.54612C27.7208 6.52833 28.1351 6.51647 28.5554 6.50461C28.6145 6.50461 28.6501 6.48089 28.6856 6.43939C29.1295 5.89389 29.5734 5.34839 30.0173 4.79697C30.0291 4.77918 30.041 4.76139 30.0587 4.74361C28.7566 4.16253 27.4604 3.58146 26.1523 2.99446C26.4305 2.65649 26.7265 2.36002 27.1704 2.28887C27.3124 2.26516 27.4545 2.28887 27.5965 2.2948C27.9694 2.33038 28.3423 2.37188 28.7092 2.40746C28.8335 2.41932 28.9519 2.43117 29.0703 2.44896C29.1117 2.44896 29.1413 2.44303 29.165 2.40746C29.307 2.23551 29.455 2.06356 29.597 1.89161C29.7095 1.75524 29.8752 1.74337 30.0054 1.85603C30.0587 1.90347 30.112 1.94497 30.1712 1.99241C30.2955 2.09914 30.3132 2.26516 30.2126 2.3956C30.1712 2.44304 30.1297 2.4964 30.0824 2.55569C30.2185 2.56755 30.3369 2.58534 30.4612 2.5972C30.8222 2.6387 31.1833 2.66835 31.5384 2.72171C31.6568 2.7395 31.71 2.71578 31.7751 2.62684C32.1066 2.21179 32.444 1.79674 32.7872 1.38169C32.9648 1.16823 33.2016 1.00814 33.4383 0.859908C33.6869 0.699817 33.9473 0.557515 34.2433 0.486363C34.3439 0.462646 34.4563 0.456717 34.557 0.468576C34.7227 0.492293 34.8233 0.640524 34.8292 0.859908C34.8351 1.07336 34.7937 1.27496 34.7286 1.47656C34.6161 1.83231 34.4741 2.17621 34.2551 2.47268C34.1012 2.68614 33.9236 2.87587 33.752 3.07154C33.5271 3.33243 33.3022 3.58739 33.0773 3.84828C33.0595 3.86607 33.0477 3.90164 33.0536 3.91943C33.1424 4.22183 33.2371 4.51829 33.3318 4.82069C33.391 5.01635 33.4442 5.21795 33.5093 5.43141C33.5567 5.37804 33.5922 5.33061 33.6336 5.2891C33.7579 5.1468 33.9118 5.13494 34.0539 5.25353C34.1071 5.29503 34.1545 5.33654 34.2077 5.38397C34.3439 5.50256 34.3557 5.65672 34.2433 5.79902C34.1012 5.97097 33.9592 6.13699 33.8171 6.30894C33.7875 6.34452 33.7816 6.37417 33.7934 6.4216C33.9414 6.93745 34.0775 7.4533 34.2314 7.96322C34.3084 8.22411 34.2906 8.47314 34.19 8.72217C34.1012 8.94156 33.9059 9.24395 33.752 9.38625C32.9589 8.20632 32.1658 7.02639 31.3668 5.8346C31.2721 5.94132 31.1774 6.04805 31.0886 6.15478C30.6979 6.60541 30.3132 7.05011 29.9226 7.50073C29.893 7.53631 29.8871 7.56596 29.893 7.60746C29.9522 8.01658 30.0054 8.42571 30.0587 8.83483C30.0705 8.91191 30.0765 8.99492 30.0883 9.072C30.1179 9.25581 30.0765 9.43369 29.9758 9.58785C29.9048 9.70051 29.8101 9.8013 29.7213 9.90803" fill="#424242"/>
</g>
<mask id="mask1_5457_457" style="mask-type:luminance" maskUnits="userSpaceOnUse" x="2" y="8" width="25" height="20">
<path d="M21.33 9.53446C20.1403 10.0385 19.0868 10.8152 18.1812 11.7283C17.8202 12.09 17.4355 12.8134 16.9797 12.7007C16.5181 12.5821 15.7427 11.4556 15.3876 11.1057C14.0381 9.78349 12.4164 9.08383 10.5401 8.97117C9.83581 8.92967 9.1374 9.00675 8.45083 9.16684C4.79305 10.0325 2.1888 13.6138 2.84578 17.6398C3.10029 19.217 3.81054 20.5689 4.94102 21.6955C6.87053 23.6284 8.80003 25.5614 10.7355 27.5003C11.3273 27.1267 11.8896 26.7057 12.4401 26.2551C13.5528 25.3361 14.6182 24.3577 15.6303 23.3438C18.7731 20.1894 21.4839 16.614 23.9579 12.9082C24.7688 11.6927 25.5501 10.4476 26.5858 9.41587C25.8342 9.08976 25.0174 8.94153 24.2006 8.94153C23.224 8.94153 22.2415 9.15498 21.3418 9.53446" fill="white"/>
</mask>
<g mask="url(#mask1_5457_457)">
<path d="M26.5145 7.78275L1.31641 8.96436L2.23548 28.6341L27.4336 27.4525L26.5145 7.78275Z" fill="url(#paint0_linear_5457_457)"/>
</g>
<mask id="mask2_5457_457" style="mask-type:luminance" maskUnits="userSpaceOnUse" x="0" y="10" width="32" height="24">
<path d="M28.4618 10.4179C28.0298 11.0405 22.3182 19.1458 15.997 24.5949C15.997 24.5949 14.8369 25.7037 14.245 26.1958C12.5404 27.6129 10.6583 28.8284 8.74061 29.9312C6.91764 30.9807 4.95262 31.882 2.86923 32.1785C2.7035 32.2022 2.53778 32.214 2.37205 32.22C2.08795 32.2318 1.7861 32.2081 1.55527 32.048C1.1232 31.7456 1.10544 31.1053 1.20606 30.5835C1.52567 28.8877 2.53186 27.4113 3.51437 25.9883C2.4194 27.2216 1.30668 28.4904 0.720725 30.032C0.395195 30.874 0.282738 31.9294 0.886449 32.5935C1.35403 33.0975 2.10571 33.222 2.79228 33.2161C4.54423 33.2161 6.23699 32.5994 7.83505 31.8879C9.39167 31.1942 10.9069 30.3878 12.357 29.4866C12.428 29.445 12.499 29.3976 12.5819 29.4095C12.6529 29.4213 12.7121 29.4806 12.7654 29.534C14.1681 30.9629 15.5886 32.3741 17.0032 33.7912C17.0446 33.8327 17.086 33.8683 17.1393 33.9098C17.1867 33.8624 17.2281 33.8268 17.2695 33.7853C21.3061 29.7415 25.3545 25.7096 29.3733 21.648C31.1963 19.8099 31.8592 17.5568 31.4035 15.0131C31.0661 13.1395 30.0007 11.4911 28.4855 10.3823C28.4737 10.4001 28.4678 10.406 28.4618 10.4179Z" fill="white"/>
</mask>
<g mask="url(#mask2_5457_457)">
<path d="M5.3971 -1.26952L-8.36768 30.0989L26.7485 45.5633L40.5132 14.1949L5.3971 -1.26952Z" fill="url(#paint1_linear_5457_457)"/>
</g>
</g>
<defs>
<linearGradient id="paint0_linear_5457_457" x1="15.2155" y1="26.6943" x2="14.2318" y2="5.71586" gradientUnits="userSpaceOnUse">
<stop stop-color="#FFCD75"/>
<stop offset="1" stop-color="#FD3078"/>
</linearGradient>
<linearGradient id="paint1_linear_5457_457" x1="12.0983" y1="32.8728" x2="21.9266" y2="10.555" gradientUnits="userSpaceOnUse">
<stop stop-color="#FFCD75"/>
<stop offset="1" stop-color="#FD3078"/>
</linearGradient>
<clipPath id="clip0_5457_457">
<rect width="35" height="34" fill="white"/>
</clipPath>
</defs>
</svg>
