<svg width="28" height="28" viewBox="0 0 28 28" fill="none" xmlns="http://www.w3.org/2000/svg">
<path d="M9.1001 11.2C8.7135 11.2 8.4001 11.5134 8.4001 11.9C8.4001 12.2866 8.7135 12.6 9.1001 12.6H18.9001C19.2866 12.6 19.6001 12.2866 19.6001 11.9C19.6001 11.5134 19.2866 11.2 18.9001 11.2H9.1001ZM8.4001 16.1C8.4001 15.7134 8.7135 15.4 9.1001 15.4H13.3001C13.6867 15.4 14.0001 15.7134 14.0001 16.1C14.0001 16.4865 13.6867 16.8 13.3001 16.8H9.1001C8.7135 16.8 8.4001 16.4865 8.4001 16.1ZM9.1001 19.6C8.7135 19.6 8.4001 19.9134 8.4001 20.3C8.4001 20.6865 8.7135 21 9.1001 21H16.1001C16.4866 21 16.8001 20.6865 16.8001 20.3C16.8001 19.9134 16.4866 19.6 16.1001 19.6H9.1001ZM11.9001 2.79999C10.9857 2.79999 10.2079 3.38435 9.91959 4.19999H7.7001C6.5403 4.19999 5.6001 5.14019 5.6001 6.29999V23.1C5.6001 24.2597 6.5403 25.2 7.7001 25.2H20.3001C21.4599 25.2 22.4001 24.2597 22.4001 23.1V6.29999C22.4001 5.14019 21.4599 4.19999 20.3001 4.19999H18.0805C17.7923 3.38435 17.0144 2.79999 16.1001 2.79999H11.9001ZM16.1001 4.19999C16.4866 4.19999 16.8001 4.51339 16.8001 4.89999C16.8001 5.28658 16.4866 5.59999 16.1001 5.59999H11.9001C11.5135 5.59999 11.2001 5.28658 11.2001 4.89999C11.2001 4.51339 11.5135 4.19999 11.9001 4.19999H16.1001ZM7.7001 5.59999H9.91959C10.2079 6.41563 10.9857 6.99999 11.9001 6.99999H16.1001C17.0144 6.99999 17.7923 6.41563 18.0805 5.59999H20.3001C20.6866 5.59999 21.0001 5.91339 21.0001 6.29999V23.1C21.0001 23.4865 20.6866 23.8 20.3001 23.8H7.7001C7.3135 23.8 7.0001 23.4865 7.0001 23.1V6.29999C7.0001 5.91339 7.3135 5.59999 7.7001 5.59999Z" fill="white"/>
<circle cx="21.7" cy="23.1" r="4.9" fill="url(#paint0_linear_5155_5562)"/>
<path d="M26.6 23.1C26.6 25.8062 24.4063 28 21.7 28C18.9938 28 16.8 25.8062 16.8 23.1C16.8 20.3938 18.9938 18.2 21.7 18.2C24.4063 18.2 26.6 20.3938 26.6 23.1ZM24.6878 21.0032C24.5138 20.8292 24.2317 20.8292 24.0578 21.0032L20.8091 24.2519L19.3423 22.785C19.1684 22.6111 18.8863 22.6111 18.7123 22.785C18.5384 22.959 18.5384 23.241 18.7123 23.415L20.4941 25.1968C20.6681 25.3708 20.9502 25.3708 21.1242 25.1968L24.6878 21.6332C24.8617 21.4592 24.8617 21.1772 24.6878 21.0032Z" fill="white"/>
<defs>
<linearGradient id="paint0_linear_5155_5562" x1="16.8" y1="19.0366" x2="25.7635" y2="28" gradientUnits="userSpaceOnUse">
<stop offset="0.00745959" stop-color="#FE3279"/>
<stop offset="1" stop-color="#FFCE76"/>
</linearGradient>
</defs>
</svg>
