<svg width="57" height="57" viewBox="0 0 57 57" fill="none" xmlns="http://www.w3.org/2000/svg">
<g clip-path="url(#clip0_5457_591)">
<path d="M8.28925 48.5129C5.7856 46.0092 7.44563 40.7488 6.17203 37.6683C4.84945 34.487 0 31.9017 0 28.5C0 25.0983 4.84945 22.513 6.17203 19.3318C7.44563 16.2539 5.7856 10.9908 8.28925 8.48718C10.7929 5.98354 16.056 7.64356 19.1338 6.36997C22.3287 5.04739 24.9004 0.197937 28.3021 0.197937C31.7038 0.197937 34.2891 5.04739 37.4703 6.36997C40.5509 7.64356 45.8113 5.98354 48.3149 8.48718C50.8186 10.9908 49.1585 16.2512 50.4321 19.3318C51.7547 22.5266 56.6042 25.0983 56.6042 28.5C56.6042 31.9017 51.7547 34.487 50.4321 37.6683C49.1585 40.7488 50.8186 46.0092 48.3149 48.5129C45.8113 51.0165 40.5509 49.3565 37.4703 50.6301C34.2891 51.9527 31.7038 56.8021 28.3021 56.8021C24.9004 56.8021 22.3151 51.9527 19.1338 50.6301C16.056 49.3565 10.7929 51.0165 8.28925 48.5129Z" fill="url(#paint0_linear_5457_591)"/>
<g clip-path="url(#clip1_5457_591)">
<path d="M21.2463 35.6251H35.7516C35.9378 35.6251 36.118 35.5596 36.2606 35.4399C36.4032 35.3203 36.4991 35.1543 36.5314 34.971L38.7778 24.6793C38.806 24.5099 38.7784 24.336 38.6991 24.1837C38.6198 24.0314 38.4932 23.909 38.3383 23.8349C38.1834 23.7609 38.0086 23.7392 37.8403 23.7732C37.672 23.8071 37.5193 23.8949 37.4052 24.0232L33.249 28.5001L29.2174 19.4602C29.1539 19.3231 29.0526 19.207 28.9253 19.1257C28.798 19.0443 28.65 19.0011 28.499 19.0011C28.3479 19.0011 28.2 19.0443 28.0727 19.1257C27.9453 19.207 27.844 19.3231 27.7805 19.4602L23.749 28.5001L19.5927 24.0232C19.4789 23.893 19.3255 23.8037 19.1562 23.7689C18.9868 23.734 18.8106 23.7556 18.6547 23.8304C18.4987 23.9051 18.3715 24.0288 18.2925 24.1827C18.2135 24.3365 18.1871 24.512 18.2172 24.6823L20.4635 34.9739C20.4966 35.1572 20.5932 35.3229 20.7364 35.442C20.8795 35.5611 21.0601 35.6259 21.2463 35.6251Z" stroke="white" stroke-width="1.4" stroke-linecap="round" stroke-linejoin="round"/>
</g>
</g>
<defs>
<linearGradient id="paint0_linear_5457_591" x1="5.78598e-07" y1="5.03" x2="51.7721" y2="56.8021" gradientUnits="userSpaceOnUse">
<stop offset="0.00745959" stop-color="#FE3279"/>
<stop offset="1" stop-color="#FFCE76"/>
</linearGradient>
<clipPath id="clip0_5457_591">
<rect width="57" height="57" fill="white"/>
</clipPath>
<clipPath id="clip1_5457_591">
<rect width="25.3333" height="25.3333" fill="white" transform="translate(15.834 15.8333)"/>
</clipPath>
</defs>
</svg>
